<?xml version="1.0" encoding="UTF-8" standalone="no"?>
<!-- Created with Inkscape (http://www.inkscape.org/) -->

<svg
   xmlns:dc="http://purl.org/dc/elements/1.1/"
   xmlns:cc="http://creativecommons.org/ns#"
   xmlns:rdf="http://www.w3.org/1999/02/22-rdf-syntax-ns#"
   xmlns:svg="http://www.w3.org/2000/svg"
   xmlns="http://www.w3.org/2000/svg"
   xmlns:sodipodi="http://sodipodi.sourceforge.net/DTD/sodipodi-0.dtd"
   xmlns:inkscape="http://www.inkscape.org/namespaces/inkscape"
   width="744.09448819"
   height="1052.3622047"
   id="svg3885"
   version="1.1"
   inkscape:version="0.48.1 r9760"
   sodipodi:docname="New document 7">
  <defs
     id="defs3887" />
  <sodipodi:namedview
     id="base"
     pagecolor="#ffffff"
     bordercolor="#666666"
     borderopacity="1.0"
     inkscape:pageopacity="0.0"
     inkscape:pageshadow="2"
     inkscape:zoom="0.73833896"
     inkscape:cx="372.04724"
     inkscape:cy="526.18109"
     inkscape:document-units="px"
     inkscape:current-layer="layer1"
     showgrid="false"
     inkscape:window-width="1280"
     inkscape:window-height="951"
     inkscape:window-x="0"
     inkscape:window-y="24"
     inkscape:window-maximized="1" />
  <metadata
     id="metadata3890">
    <rdf:RDF>
      <cc:Work
         rdf:about="">
        <dc:format>image/svg+xml</dc:format>
        <dc:type
           rdf:resource="http://purl.org/dc/dcmitype/StillImage" />
        <dc:title></dc:title>
      </cc:Work>
    </rdf:RDF>
  </metadata>
  <g
     inkscape:label="Layer 1"
     inkscape:groupmode="layer"
     id="layer1">
    <path
       sodipodi:type="arc"
       style="fill:#000000;fill-opacity:1;stroke:none"
       id="path3914"
       sodipodi:cx="377.14285"
       sodipodi:cy="565.2193"
       sodipodi:rx="354.28571"
       sodipodi:ry="98.571426"
       d="m 731.42856,565.2193 a 354.28571,98.571426 0 1 1 -708.571413,0 354.28571,98.571426 0 1 1 708.571413,0 z" />
    <path
       d="m 731.42856,565.2193 a 354.28571,98.571426 0 1 1 -708.571413,0 354.28571,98.571426 0 1 1 708.571413,0 z"
       sodipodi:ry="98.571426"
       sodipodi:rx="354.28571"
       sodipodi:cy="565.2193"
       sodipodi:cx="377.14285"
       id="path3916"
       style="fill:#ffffff;fill-opacity:1;stroke:none"
       sodipodi:type="arc"
       transform="matrix(0.93118817,0,0,1,24.449137,-0.8041208)" />
    <path
       d="m 731.42856,565.2193 a 354.28571,98.571426 0 1 1 -708.571413,0 354.28571,98.571426 0 1 1 708.571413,0 z"
       sodipodi:ry="98.571426"
       sodipodi:rx="354.28571"
       sodipodi:cy="565.2193"
       sodipodi:cx="377.14285"
       id="path3923"
       style="fill:#000000;fill-opacity:1;stroke:none"
       sodipodi:type="arc"
       transform="matrix(-0.70710678,-0.70710678,0.70710678,-0.70710678,253.41339,1229.6843)" />
    <path
       transform="matrix(0.70710678,-0.70710678,-0.70710678,-0.70710678,501.78657,1231.0387)"
       sodipodi:type="arc"
       style="fill:#000000;fill-opacity:1;stroke:none"
       id="path3929"
       sodipodi:cx="377.14285"
       sodipodi:cy="565.2193"
       sodipodi:rx="354.28571"
       sodipodi:ry="98.571426"
       d="m 731.42856,565.2193 a 354.28571,98.571426 0 1 1 -708.571413,0 354.28571,98.571426 0 1 1 708.571413,0 z" />
    <path
       transform="matrix(-0.65844947,-0.65844947,0.70710678,-0.70710678,233.43143,1211.8275)"
       sodipodi:type="arc"
       style="fill:#ffffff;fill-opacity:1;stroke:none"
       id="path3925"
       sodipodi:cx="377.14285"
       sodipodi:cy="565.2193"
       sodipodi:rx="354.28571"
       sodipodi:ry="98.571426"
       d="m 731.42856,565.2193 a 354.28571,98.571426 0 1 1 -708.571413,0 354.28571,98.571426 0 1 1 708.571413,0 z" />
    <path
       d="m 731.42856,565.2193 a 354.28571,98.571426 0 1 1 -708.571413,0 354.28571,98.571426 0 1 1 708.571413,0 z"
       sodipodi:ry="98.571426"
       sodipodi:rx="354.28571"
       sodipodi:cy="565.2193"
       sodipodi:cx="377.14285"
       id="path3931"
       style="fill:#ffffff;fill-opacity:1;stroke:none"
       sodipodi:type="arc"
       transform="matrix(0.65844947,-0.65844947,-0.70710678,-0.70710678,521.76853,1213.1819)" />
    <path
       sodipodi:type="arc"
       style="fill:#000000;fill-opacity:1;stroke:none"
       id="path3937"
       sodipodi:cx="161.17259"
       sodipodi:cy="103.61095"
       sodipodi:rx="21.670263"
       sodipodi:ry="20.993069"
       d="m 182.84286,103.61095 a 21.670263,20.993069 0 1 1 -43.34053,0 21.670263,20.993069 0 1 1 43.34053,0 z"
       transform="translate(241.08169,483.51776)" />
    <path
       d="m 182.84286,103.61095 a 21.670263,20.993069 0 1 1 -43.34053,0 21.670263,20.993069 0 1 1 43.34053,0 z"
       sodipodi:ry="20.993069"
       sodipodi:rx="21.670263"
       sodipodi:cy="103.61095"
       sodipodi:cx="161.17259"
       id="path3939"
       style="fill:#000000;fill-opacity:1;stroke:none"
       sodipodi:type="arc"
       transform="translate(188.26041,482.16337)" />
    <path
       sodipodi:type="arc"
       style="fill:#000000;fill-opacity:1;stroke:none"
       id="path3941"
       sodipodi:cx="161.17259"
       sodipodi:cy="103.61095"
       sodipodi:rx="21.670263"
       sodipodi:ry="20.993069"
       d="m 182.84286,103.61095 a 21.670263,20.993069 0 1 1 -43.34053,0 21.670263,20.993069 0 1 1 43.34053,0 z"
       transform="translate(213.99386,436.11407)" />
  </g>
</svg>
