  0
SECTION
  2
BLOCKS
  0
ENDSEC
  0
SECTION
  2
ENTITIES
  0
LINE
  8
0
 10
0
 11
0
 20
4.975
 21
155.025
  0
LINE
  8
0
 10
0
 11
0.001
 20
155.025
 21
155.075
  0
LINE
  8
0
 10
0.001
 11
0.002
 20
155.075
 21
155.125
  0
LINE
  8
0
 10
0.002
 11
0.003
 20
155.125
 21
155.175
  0
LINE
  8
0
 10
0.003
 11
0.005
 20
155.175
 21
155.225
  0
LINE
  8
0
 10
0.005
 11
0.008
 20
155.225
 21
155.275
  0
LINE
  8
0
 10
0.008
 11
0.011
 20
155.275
 21
155.324
  0
LINE
  8
0
 10
0.011
 11
0.014
 20
155.324
 21
155.374
  0
LINE
  8
0
 10
0.014
 11
0.018
 20
155.374
 21
155.424
  0
LINE
  8
0
 10
0.018
 11
0.022
 20
155.424
 21
155.474
  0
LINE
  8
0
 10
0.022
 11
0.027
 20
155.474
 21
155.523
  0
LINE
  8
0
 10
0.027
 11
0.033
 20
155.523
 21
155.573
  0
LINE
  8
0
 10
0.033
 11
0.039
 20
155.573
 21
155.623
  0
LINE
  8
0
 10
0.039
 11
0.045
 20
155.623
 21
155.672
  0
LINE
  8
0
 10
0.045
 11
0.052
 20
155.672
 21
155.722
  0
LINE
  8
0
 10
0.052
 11
0.068
 20
155.722
 21
155.82
  0
LINE
  8
0
 10
0.068
 11
0.076
 20
155.82
 21
155.87
  0
LINE
  8
0
 10
0.076
 11
0.085
 20
155.87
 21
155.919
  0
LINE
  8
0
 10
0.085
 11
0.095
 20
155.919
 21
155.968
  0
LINE
  8
0
 10
0.095
 11
0.104
 20
155.968
 21
156.017
  0
LINE
  8
0
 10
0.104
 11
0.115
 20
156.017
 21
156.066
  0
LINE
  8
0
 10
0.115
 11
0.126
 20
156.066
 21
156.114
  0
LINE
  8
0
 10
0.126
 11
0.137
 20
156.114
 21
156.163
  0
LINE
  8
0
 10
0.137
 11
0.149
 20
156.163
 21
156.211
  0
LINE
  8
0
 10
0.149
 11
0.161
 20
156.211
 21
156.26
  0
LINE
  8
0
 10
0.161
 11
0.174
 20
156.26
 21
156.308
  0
LINE
  8
0
 10
0.174
 11
0.187
 20
156.308
 21
156.356
  0
LINE
  8
0
 10
0.187
 11
0.201
 20
156.356
 21
156.404
  0
LINE
  8
0
 10
0.201
 11
0.216
 20
156.404
 21
156.452
  0
LINE
  8
0
 10
0.216
 11
0.23
 20
156.452
 21
156.5
  0
LINE
  8
0
 10
0.23
 11
0.245
 20
156.5
 21
156.547
  0
LINE
  8
0
 10
0.245
 11
0.261
 20
156.547
 21
156.595
  0
LINE
  8
0
 10
0.261
 11
0.277
 20
156.595
 21
156.642
  0
LINE
  8
0
 10
0.277
 11
0.294
 20
156.642
 21
156.689
  0
LINE
  8
0
 10
0.294
 11
0.311
 20
156.689
 21
156.736
  0
LINE
  8
0
 10
0.311
 11
0.329
 20
156.736
 21
156.783
  0
LINE
  8
0
 10
0.329
 11
0.347
 20
156.783
 21
156.829
  0
LINE
  8
0
 10
0.347
 11
0.365
 20
156.829
 21
156.876
  0
LINE
  8
0
 10
0.365
 11
0.384
 20
156.876
 21
156.922
  0
LINE
  8
0
 10
0.384
 11
0.404
 20
156.922
 21
156.968
  0
LINE
  8
0
 10
0.404
 11
0.424
 20
156.968
 21
157.014
  0
LINE
  8
0
 10
0.424
 11
0.444
 20
157.014
 21
157.06
  0
LINE
  8
0
 10
0.444
 11
0.486
 20
157.06
 21
157.15
  0
LINE
  8
0
 10
0.486
 11
0.508
 20
157.15
 21
157.195
  0
LINE
  8
0
 10
0.508
 11
0.53
 20
157.195
 21
157.24
  0
LINE
  8
0
 10
0.53
 11
0.552
 20
157.24
 21
157.284
  0
LINE
  8
0
 10
0.552
 11
0.575
 20
157.284
 21
157.329
  0
LINE
  8
0
 10
0.575
 11
0.623
 20
157.329
 21
157.417
  0
LINE
  8
0
 10
0.623
 11
0.647
 20
157.417
 21
157.46
  0
LINE
  8
0
 10
0.647
 11
0.672
 20
157.46
 21
157.504
  0
LINE
  8
0
 10
0.672
 11
0.697
 20
157.504
 21
157.547
  0
LINE
  8
0
 10
0.697
 11
0.723
 20
157.547
 21
157.59
  0
LINE
  8
0
 10
0.723
 11
0.775
 20
157.59
 21
157.674
  0
LINE
  8
0
 10
0.775
 11
0.802
 20
157.674
 21
157.717
  0
LINE
  8
0
 10
0.802
 11
0.83
 20
157.717
 21
157.758
  0
LINE
  8
0
 10
0.83
 11
0.857
 20
157.758
 21
157.8
  0
LINE
  8
0
 10
0.857
 11
0.886
 20
157.8
 21
157.841
  0
LINE
  8
0
 10
0.886
 11
0.914
 20
157.841
 21
157.882
  0
LINE
  8
0
 10
0.914
 11
0.943
 20
157.882
 21
157.923
  0
LINE
  8
0
 10
0.943
 11
0.973
 20
157.923
 21
157.963
  0
LINE
  8
0
 10
0.973
 11
1.002
 20
157.963
 21
158.003
  0
LINE
  8
0
 10
1.002
 11
1.033
 20
158.003
 21
158.043
  0
LINE
  8
0
 10
1.033
 11
1.063
 20
158.043
 21
158.082
  0
LINE
  8
0
 10
1.063
 11
1.094
 20
158.082
 21
158.122
  0
LINE
  8
0
 10
1.094
 11
1.126
 20
158.122
 21
158.16
  0
LINE
  8
0
 10
1.126
 11
1.157
 20
158.16
 21
158.199
  0
LINE
  8
0
 10
1.157
 11
1.189
 20
158.199
 21
158.237
  0
LINE
  8
0
 10
1.189
 11
1.222
 20
158.237
 21
158.275
  0
LINE
  8
0
 10
1.222
 11
1.255
 20
158.275
 21
158.313
  0
LINE
  8
0
 10
1.255
 11
1.288
 20
158.313
 21
158.35
  0
LINE
  8
0
 10
1.288
 11
1.322
 20
158.35
 21
158.387
  0
LINE
  8
0
 10
1.322
 11
1.356
 20
158.387
 21
158.423
  0
LINE
  8
0
 10
1.356
 11
1.39
 20
158.423
 21
158.46
  0
LINE
  8
0
 10
1.39
 11
1.425
 20
158.46
 21
158.496
  0
LINE
  8
0
 10
1.425
 11
1.46
 20
158.496
 21
158.531
  0
LINE
  8
0
 10
1.46
 11
1.496
 20
158.531
 21
158.566
  0
LINE
  8
0
 10
1.496
 11
1.531
 20
158.566
 21
158.601
  0
LINE
  8
0
 10
1.531
 11
1.567
 20
158.601
 21
158.636
  0
LINE
  8
0
 10
1.567
 11
1.604
 20
158.636
 21
158.67
  0
LINE
  8
0
 10
1.604
 11
1.641
 20
158.67
 21
158.703
  0
LINE
  8
0
 10
1.641
 11
1.678
 20
158.703
 21
158.737
  0
LINE
  8
0
 10
1.678
 11
1.715
 20
158.737
 21
158.77
  0
LINE
  8
0
 10
1.715
 11
1.753
 20
158.77
 21
158.802
  0
LINE
  8
0
 10
1.753
 11
1.791
 20
158.802
 21
158.835
  0
LINE
  8
0
 10
1.791
 11
1.83
 20
158.835
 21
158.867
  0
LINE
  8
0
 10
1.83
 11
1.869
 20
158.867
 21
158.898
  0
LINE
  8
0
 10
1.869
 11
1.908
 20
158.898
 21
158.929
  0
LINE
  8
0
 10
1.908
 11
1.947
 20
158.929
 21
158.96
  0
LINE
  8
0
 10
1.947
 11
2.027
 20
158.96
 21
159.02
  0
LINE
  8
0
 10
2.027
 11
2.067
 20
159.02
 21
159.049
  0
LINE
  8
0
 10
2.067
 11
2.108
 20
159.049
 21
159.079
  0
LINE
  8
0
 10
2.108
 11
2.149
 20
159.079
 21
159.107
  0
LINE
  8
0
 10
2.149
 11
2.19
 20
159.107
 21
159.136
  0
LINE
  8
0
 10
2.19
 11
2.231
 20
159.136
 21
159.163
  0
LINE
  8
0
 10
2.231
 11
2.273
 20
159.163
 21
159.191
  0
LINE
  8
0
 10
2.273
 11
2.315
 20
159.191
 21
159.218
  0
LINE
  8
0
 10
2.315
 11
2.357
 20
159.218
 21
159.244
  0
LINE
  8
0
 10
2.357
 11
2.4
 20
159.244
 21
159.271
  0
LINE
  8
0
 10
2.4
 11
2.443
 20
159.271
 21
159.296
  0
LINE
  8
0
 10
2.443
 11
2.486
 20
159.296
 21
159.322
  0
LINE
  8
0
 10
2.486
 11
2.529
 20
159.322
 21
159.347
  0
LINE
  8
0
 10
2.529
 11
2.572
 20
159.347
 21
159.371
  0
LINE
  8
0
 10
2.572
 11
2.66
 20
159.371
 21
159.419
  0
LINE
  8
0
 10
2.66
 11
2.704
 20
159.419
 21
159.442
  0
LINE
  8
0
 10
2.704
 11
2.749
 20
159.442
 21
159.465
  0
LINE
  8
0
 10
2.749
 11
2.839
 20
159.465
 21
159.509
  0
LINE
  8
0
 10
2.839
 11
2.929
 20
159.509
 21
159.551
  0
LINE
  8
0
 10
2.929
 11
2.975
 20
159.551
 21
159.571
  0
LINE
  8
0
 10
2.975
 11
3.02
 20
159.571
 21
159.591
  0
LINE
  8
0
 10
3.02
 11
3.066
 20
159.591
 21
159.611
  0
LINE
  8
0
 10
3.066
 11
3.113
 20
159.611
 21
159.63
  0
LINE
  8
0
 10
3.113
 11
3.159
 20
159.63
 21
159.649
  0
LINE
  8
0
 10
3.159
 11
3.205
 20
159.649
 21
159.667
  0
LINE
  8
0
 10
3.205
 11
3.252
 20
159.667
 21
159.685
  0
LINE
  8
0
 10
3.252
 11
3.299
 20
159.685
 21
159.702
  0
LINE
  8
0
 10
3.299
 11
3.346
 20
159.702
 21
159.719
  0
LINE
  8
0
 10
3.346
 11
3.393
 20
159.719
 21
159.735
  0
LINE
  8
0
 10
3.393
 11
3.441
 20
159.735
 21
159.751
  0
LINE
  8
0
 10
3.441
 11
3.488
 20
159.751
 21
159.766
  0
LINE
  8
0
 10
3.488
 11
3.536
 20
159.766
 21
159.781
  0
LINE
  8
0
 10
3.536
 11
3.584
 20
159.781
 21
159.795
  0
LINE
  8
0
 10
3.584
 11
3.632
 20
159.795
 21
159.809
  0
LINE
  8
0
 10
3.632
 11
3.68
 20
159.809
 21
159.823
  0
LINE
  8
0
 10
3.68
 11
3.728
 20
159.823
 21
159.836
  0
LINE
  8
0
 10
3.728
 11
3.776
 20
159.836
 21
159.848
  0
LINE
  8
0
 10
3.776
 11
3.825
 20
159.848
 21
159.86
  0
LINE
  8
0
 10
3.825
 11
3.873
 20
159.86
 21
159.871
  0
LINE
  8
0
 10
3.873
 11
3.971
 20
159.871
 21
159.893
  0
LINE
  8
0
 10
3.971
 11
4.02
 20
159.893
 21
159.903
  0
LINE
  8
0
 10
4.02
 11
4.069
 20
159.903
 21
159.913
  0
LINE
  8
0
 10
4.069
 11
4.118
 20
159.913
 21
159.922
  0
LINE
  8
0
 10
4.118
 11
4.167
 20
159.922
 21
159.93
  0
LINE
  8
0
 10
4.167
 11
4.217
 20
159.93
 21
159.938
  0
LINE
  8
0
 10
4.217
 11
4.266
 20
159.938
 21
159.946
  0
LINE
  8
0
 10
4.266
 11
4.315
 20
159.946
 21
159.953
  0
LINE
  8
0
 10
4.315
 11
4.365
 20
159.953
 21
159.96
  0
LINE
  8
0
 10
4.365
 11
4.414
 20
159.96
 21
159.966
  0
LINE
  8
0
 10
4.414
 11
4.464
 20
159.966
 21
159.971
  0
LINE
  8
0
 10
4.464
 11
4.564
 20
159.971
 21
159.981
  0
LINE
  8
0
 10
4.564
 11
4.613
 20
159.981
 21
159.985
  0
LINE
  8
0
 10
4.613
 11
4.663
 20
159.985
 21
159.989
  0
LINE
  8
0
 10
4.663
 11
4.713
 20
159.989
 21
159.992
  0
LINE
  8
0
 10
4.713
 11
4.813
 20
159.992
 21
159.996
  0
LINE
  8
0
 10
4.813
 11
4.863
 20
159.996
 21
159.998
  0
LINE
  8
0
 10
4.863
 11
4.963
 20
159.998
 21
160
  0
LINE
  8
0
 10
4.963
 11
205.062
 20
160
 21
160
  0
LINE
  8
0
 10
205.062
 11
205.112
 20
160
 21
159.999
  0
LINE
  8
0
 10
205.112
 11
205.162
 20
159.999
 21
159.997
  0
LINE
  8
0
 10
205.162
 11
205.212
 20
159.997
 21
159.995
  0
LINE
  8
0
 10
205.212
 11
205.262
 20
159.995
 21
159.993
  0
LINE
  8
0
 10
205.262
 11
205.362
 20
159.993
 21
159.987
  0
LINE
  8
0
 10
205.362
 11
205.412
 20
159.987
 21
159.983
  0
LINE
  8
0
 10
205.412
 11
205.461
 20
159.983
 21
159.979
  0
LINE
  8
0
 10
205.461
 11
205.511
 20
159.979
 21
159.974
  0
LINE
  8
0
 10
205.511
 11
205.561
 20
159.974
 21
159.968
  0
LINE
  8
0
 10
205.561
 11
205.61
 20
159.968
 21
159.963
  0
LINE
  8
0
 10
205.61
 11
205.66
 20
159.963
 21
159.956
  0
LINE
  8
0
 10
205.66
 11
205.709
 20
159.956
 21
159.949
  0
LINE
  8
0
 10
205.709
 11
205.759
 20
159.949
 21
159.942
  0
LINE
  8
0
 10
205.759
 11
205.808
 20
159.942
 21
159.934
  0
LINE
  8
0
 10
205.808
 11
205.857
 20
159.934
 21
159.926
  0
LINE
  8
0
 10
205.857
 11
205.906
 20
159.926
 21
159.917
  0
LINE
  8
0
 10
205.906
 11
205.956
 20
159.917
 21
159.908
  0
LINE
  8
0
 10
205.956
 11
206.005
 20
159.908
 21
159.898
  0
LINE
  8
0
 10
206.005
 11
206.053
 20
159.898
 21
159.888
  0
LINE
  8
0
 10
206.053
 11
206.151
 20
159.888
 21
159.866
  0
LINE
  8
0
 10
206.151
 11
206.199
 20
159.866
 21
159.854
  0
LINE
  8
0
 10
206.199
 11
206.248
 20
159.854
 21
159.842
  0
LINE
  8
0
 10
206.248
 11
206.344
 20
159.842
 21
159.816
  0
LINE
  8
0
 10
206.344
 11
206.392
 20
159.816
 21
159.802
  0
LINE
  8
0
 10
206.392
 11
206.44
 20
159.802
 21
159.788
  0
LINE
  8
0
 10
206.44
 11
206.488
 20
159.788
 21
159.773
  0
LINE
  8
0
 10
206.488
 11
206.536
 20
159.773
 21
159.758
  0
LINE
  8
0
 10
206.536
 11
206.583
 20
159.758
 21
159.743
  0
LINE
  8
0
 10
206.583
 11
206.63
 20
159.743
 21
159.727
  0
LINE
  8
0
 10
206.63
 11
206.677
 20
159.727
 21
159.71
  0
LINE
  8
0
 10
206.677
 11
206.724
 20
159.71
 21
159.693
  0
LINE
  8
0
 10
206.724
 11
206.771
 20
159.693
 21
159.676
  0
LINE
  8
0
 10
206.771
 11
206.818
 20
159.676
 21
159.658
  0
LINE
  8
0
 10
206.818
 11
206.864
 20
159.658
 21
159.639
  0
LINE
  8
0
 10
206.864
 11
206.911
 20
159.639
 21
159.621
  0
LINE
  8
0
 10
206.911
 11
206.957
 20
159.621
 21
159.601
  0
LINE
  8
0
 10
206.957
 11
207.002
 20
159.601
 21
159.582
  0
LINE
  8
0
 10
207.002
 11
207.048
 20
159.582
 21
159.561
  0
LINE
  8
0
 10
207.048
 11
207.094
 20
159.561
 21
159.541
  0
LINE
  8
0
 10
207.094
 11
207.139
 20
159.541
 21
159.519
  0
LINE
  8
0
 10
207.139
 11
207.184
 20
159.519
 21
159.498
  0
LINE
  8
0
 10
207.184
 11
207.229
 20
159.498
 21
159.476
  0
LINE
  8
0
 10
207.229
 11
207.273
 20
159.476
 21
159.453
  0
LINE
  8
0
 10
207.273
 11
207.318
 20
159.453
 21
159.43
  0
LINE
  8
0
 10
207.318
 11
207.362
 20
159.43
 21
159.407
  0
LINE
  8
0
 10
207.362
 11
207.406
 20
159.407
 21
159.383
  0
LINE
  8
0
 10
207.406
 11
207.449
 20
159.383
 21
159.359
  0
LINE
  8
0
 10
207.449
 11
207.493
 20
159.359
 21
159.334
  0
LINE
  8
0
 10
207.493
 11
207.579
 20
159.334
 21
159.284
  0
LINE
  8
0
 10
207.579
 11
207.622
 20
159.284
 21
159.258
  0
LINE
  8
0
 10
207.622
 11
207.664
 20
159.258
 21
159.231
  0
LINE
  8
0
 10
207.664
 11
207.706
 20
159.231
 21
159.204
  0
LINE
  8
0
 10
207.706
 11
207.748
 20
159.204
 21
159.177
  0
LINE
  8
0
 10
207.748
 11
207.79
 20
159.177
 21
159.15
  0
LINE
  8
0
 10
207.79
 11
207.831
 20
159.15
 21
159.121
  0
LINE
  8
0
 10
207.831
 11
207.872
 20
159.121
 21
159.093
  0
LINE
  8
0
 10
207.872
 11
207.913
 20
159.093
 21
159.064
  0
LINE
  8
0
 10
207.913
 11
207.953
 20
159.064
 21
159.035
  0
LINE
  8
0
 10
207.953
 11
207.993
 20
159.035
 21
159.005
  0
LINE
  8
0
 10
207.993
 11
208.033
 20
159.005
 21
158.975
  0
LINE
  8
0
 10
208.033
 11
208.073
 20
158.975
 21
158.944
  0
LINE
  8
0
 10
208.073
 11
208.112
 20
158.944
 21
158.914
  0
LINE
  8
0
 10
208.112
 11
208.151
 20
158.914
 21
158.882
  0
LINE
  8
0
 10
208.151
 11
208.189
 20
158.882
 21
158.851
  0
LINE
  8
0
 10
208.189
 11
208.228
 20
158.851
 21
158.819
  0
LINE
  8
0
 10
208.228
 11
208.266
 20
158.819
 21
158.786
  0
LINE
  8
0
 10
208.266
 11
208.303
 20
158.786
 21
158.753
  0
LINE
  8
0
 10
208.303
 11
208.341
 20
158.753
 21
158.72
  0
LINE
  8
0
 10
208.341
 11
208.378
 20
158.72
 21
158.687
  0
LINE
  8
0
 10
208.378
 11
208.414
 20
158.687
 21
158.653
  0
LINE
  8
0
 10
208.414
 11
208.451
 20
158.653
 21
158.618
  0
LINE
  8
0
 10
208.451
 11
208.487
 20
158.618
 21
158.584
  0
LINE
  8
0
 10
208.487
 11
208.558
 20
158.584
 21
158.513
  0
LINE
  8
0
 10
208.558
 11
208.592
 20
158.513
 21
158.478
  0
LINE
  8
0
 10
208.592
 11
208.627
 20
158.478
 21
158.442
  0
LINE
  8
0
 10
208.627
 11
208.695
 20
158.442
 21
158.368
  0
LINE
  8
0
 10
208.695
 11
208.729
 20
158.368
 21
158.331
  0
LINE
  8
0
 10
208.729
 11
208.762
 20
158.331
 21
158.294
  0
LINE
  8
0
 10
208.762
 11
208.794
 20
158.294
 21
158.256
  0
LINE
  8
0
 10
208.794
 11
208.827
 20
158.256
 21
158.218
  0
LINE
  8
0
 10
208.827
 11
208.859
 20
158.218
 21
158.18
  0
LINE
  8
0
 10
208.859
 11
208.921
 20
158.18
 21
158.102
  0
LINE
  8
0
 10
208.921
 11
208.952
 20
158.102
 21
158.063
  0
LINE
  8
0
 10
208.952
 11
208.983
 20
158.063
 21
158.023
  0
LINE
  8
0
 10
208.983
 11
209.013
 20
158.023
 21
157.983
  0
LINE
  8
0
 10
209.013
 11
209.042
 20
157.983
 21
157.943
  0
LINE
  8
0
 10
209.042
 11
209.071
 20
157.943
 21
157.902
  0
LINE
  8
0
 10
209.071
 11
209.1
 20
157.902
 21
157.862
  0
LINE
  8
0
 10
209.1
 11
209.129
 20
157.862
 21
157.821
  0
LINE
  8
0
 10
209.129
 11
209.156
 20
157.821
 21
157.779
  0
LINE
  8
0
 10
209.156
 11
209.184
 20
157.779
 21
157.737
  0
LINE
  8
0
 10
209.184
 11
209.211
 20
157.737
 21
157.696
  0
LINE
  8
0
 10
209.211
 11
209.238
 20
157.696
 21
157.653
  0
LINE
  8
0
 10
209.238
 11
209.264
 20
157.653
 21
157.611
  0
LINE
  8
0
 10
209.264
 11
209.29
 20
157.611
 21
157.568
  0
LINE
  8
0
 10
209.29
 11
209.34
 20
157.568
 21
157.482
  0
LINE
  8
0
 10
209.34
 11
209.365
 20
157.482
 21
157.438
  0
LINE
  8
0
 10
209.365
 11
209.389
 20
157.438
 21
157.395
  0
LINE
  8
0
 10
209.389
 11
209.413
 20
157.395
 21
157.351
  0
LINE
  8
0
 10
209.413
 11
209.436
 20
157.351
 21
157.307
  0
LINE
  8
0
 10
209.436
 11
209.459
 20
157.307
 21
157.262
  0
LINE
  8
0
 10
209.459
 11
209.481
 20
157.262
 21
157.218
  0
LINE
  8
0
 10
209.481
 11
209.525
 20
157.218
 21
157.128
  0
LINE
  8
0
 10
209.525
 11
209.546
 20
157.128
 21
157.082
  0
LINE
  8
0
 10
209.546
 11
209.566
 20
157.082
 21
157.037
  0
LINE
  8
0
 10
209.566
 11
209.586
 20
157.037
 21
156.991
  0
LINE
  8
0
 10
209.586
 11
209.606
 20
156.991
 21
156.945
  0
LINE
  8
0
 10
209.606
 11
209.644
 20
156.945
 21
156.853
  0
LINE
  8
0
 10
209.644
 11
209.662
 20
156.853
 21
156.806
  0
LINE
  8
0
 10
209.662
 11
209.68
 20
156.806
 21
156.76
  0
LINE
  8
0
 10
209.68
 11
209.698
 20
156.76
 21
156.713
  0
LINE
  8
0
 10
209.698
 11
209.714
 20
156.713
 21
156.666
  0
LINE
  8
0
 10
209.714
 11
209.731
 20
156.666
 21
156.619
  0
LINE
  8
0
 10
209.731
 11
209.747
 20
156.619
 21
156.571
  0
LINE
  8
0
 10
209.747
 11
209.762
 20
156.571
 21
156.524
  0
LINE
  8
0
 10
209.762
 11
209.792
 20
156.524
 21
156.428
  0
LINE
  8
0
 10
209.792
 11
209.806
 20
156.428
 21
156.38
  0
LINE
  8
0
 10
209.806
 11
209.845
 20
156.38
 21
156.236
  0
LINE
  8
0
 10
209.845
 11
209.857
 20
156.236
 21
156.187
  0
LINE
  8
0
 10
209.857
 11
209.869
 20
156.187
 21
156.139
  0
LINE
  8
0
 10
209.869
 11
209.88
 20
156.139
 21
156.09
  0
LINE
  8
0
 10
209.88
 11
209.89
 20
156.09
 21
156.041
  0
LINE
  8
0
 10
209.89
 11
209.901
 20
156.041
 21
155.992
  0
LINE
  8
0
 10
209.901
 11
209.91
 20
155.992
 21
155.943
  0
LINE
  8
0
 10
209.91
 11
209.919
 20
155.943
 21
155.894
  0
LINE
  8
0
 10
209.919
 11
209.928
 20
155.894
 21
155.845
  0
LINE
  8
0
 10
209.928
 11
209.936
 20
155.845
 21
155.796
  0
LINE
  8
0
 10
209.936
 11
209.944
 20
155.796
 21
155.746
  0
LINE
  8
0
 10
209.944
 11
209.951
 20
155.746
 21
155.697
  0
LINE
  8
0
 10
209.951
 11
209.958
 20
155.697
 21
155.647
  0
LINE
  8
0
 10
209.958
 11
209.964
 20
155.647
 21
155.598
  0
LINE
  8
0
 10
209.964
 11
209.97
 20
155.598
 21
155.548
  0
LINE
  8
0
 10
209.97
 11
209.975
 20
155.548
 21
155.499
  0
LINE
  8
0
 10
209.975
 11
209.98
 20
155.499
 21
155.449
  0
LINE
  8
0
 10
209.98
 11
209.988
 20
155.449
 21
155.349
  0
LINE
  8
0
 10
209.988
 11
209.991
 20
155.349
 21
155.299
  0
LINE
  8
0
 10
209.991
 11
209.994
 20
155.299
 21
155.25
  0
LINE
  8
0
 10
209.994
 11
209.996
 20
155.25
 21
155.2
  0
LINE
  8
0
 10
209.996
 11
209.998
 20
155.2
 21
155.15
  0
LINE
  8
0
 10
209.998
 11
209.999
 20
155.15
 21
155.1
  0
LINE
  8
0
 10
209.999
 11
210
 20
155.1
 21
155.05
  0
LINE
  8
0
 10
210
 11
210
 20
155.05
 21
4.95
  0
LINE
  8
0
 10
210
 11
209.998
 20
4.95
 21
4.85
  0
LINE
  8
0
 10
209.998
 11
209.996
 20
4.85
 21
4.8
  0
LINE
  8
0
 10
209.996
 11
209.994
 20
4.8
 21
4.75
  0
LINE
  8
0
 10
209.994
 11
209.991
 20
4.75
 21
4.701
  0
LINE
  8
0
 10
209.991
 11
209.988
 20
4.701
 21
4.651
  0
LINE
  8
0
 10
209.988
 11
209.98
 20
4.651
 21
4.551
  0
LINE
  8
0
 10
209.98
 11
209.975
 20
4.551
 21
4.501
  0
LINE
  8
0
 10
209.975
 11
209.97
 20
4.501
 21
4.452
  0
LINE
  8
0
 10
209.97
 11
209.964
 20
4.452
 21
4.402
  0
LINE
  8
0
 10
209.964
 11
209.958
 20
4.402
 21
4.353
  0
LINE
  8
0
 10
209.958
 11
209.951
 20
4.353
 21
4.303
  0
LINE
  8
0
 10
209.951
 11
209.944
 20
4.303
 21
4.254
  0
LINE
  8
0
 10
209.944
 11
209.936
 20
4.254
 21
4.204
  0
LINE
  8
0
 10
209.936
 11
209.928
 20
4.204
 21
4.155
  0
LINE
  8
0
 10
209.928
 11
209.919
 20
4.155
 21
4.106
  0
LINE
  8
0
 10
209.919
 11
209.91
 20
4.106
 21
4.057
  0
LINE
  8
0
 10
209.91
 11
209.901
 20
4.057
 21
4.008
  0
LINE
  8
0
 10
209.901
 11
209.89
 20
4.008
 21
3.959
  0
LINE
  8
0
 10
209.89
 11
209.88
 20
3.959
 21
3.91
  0
LINE
  8
0
 10
209.88
 11
209.869
 20
3.91
 21
3.861
  0
LINE
  8
0
 10
209.869
 11
209.857
 20
3.861
 21
3.813
  0
LINE
  8
0
 10
209.857
 11
209.845
 20
3.813
 21
3.764
  0
LINE
  8
0
 10
209.845
 11
209.806
 20
3.764
 21
3.62
  0
LINE
  8
0
 10
209.806
 11
209.792
 20
3.62
 21
3.572
  0
LINE
  8
0
 10
209.792
 11
209.762
 20
3.572
 21
3.476
  0
LINE
  8
0
 10
209.762
 11
209.747
 20
3.476
 21
3.429
  0
LINE
  8
0
 10
209.747
 11
209.731
 20
3.429
 21
3.381
  0
LINE
  8
0
 10
209.731
 11
209.714
 20
3.381
 21
3.334
  0
LINE
  8
0
 10
209.714
 11
209.698
 20
3.334
 21
3.287
  0
LINE
  8
0
 10
209.698
 11
209.68
 20
3.287
 21
3.24
  0
LINE
  8
0
 10
209.68
 11
209.662
 20
3.24
 21
3.194
  0
LINE
  8
0
 10
209.662
 11
209.644
 20
3.194
 21
3.147
  0
LINE
  8
0
 10
209.644
 11
209.606
 20
3.147
 21
3.055
  0
LINE
  8
0
 10
209.606
 11
209.586
 20
3.055
 21
3.009
  0
LINE
  8
0
 10
209.586
 11
209.566
 20
3.009
 21
2.963
  0
LINE
  8
0
 10
209.566
 11
209.546
 20
2.963
 21
2.918
  0
LINE
  8
0
 10
209.546
 11
209.525
 20
2.918
 21
2.872
  0
LINE
  8
0
 10
209.525
 11
209.481
 20
2.872
 21
2.782
  0
LINE
  8
0
 10
209.481
 11
209.459
 20
2.782
 21
2.738
  0
LINE
  8
0
 10
209.459
 11
209.436
 20
2.738
 21
2.693
  0
LINE
  8
0
 10
209.436
 11
209.413
 20
2.693
 21
2.649
  0
LINE
  8
0
 10
209.413
 11
209.389
 20
2.649
 21
2.605
  0
LINE
  8
0
 10
209.389
 11
209.365
 20
2.605
 21
2.562
  0
LINE
  8
0
 10
209.365
 11
209.34
 20
2.562
 21
2.518
  0
LINE
  8
0
 10
209.34
 11
209.29
 20
2.518
 21
2.432
  0
LINE
  8
0
 10
209.29
 11
209.264
 20
2.432
 21
2.389
  0
LINE
  8
0
 10
209.264
 11
209.238
 20
2.389
 21
2.347
  0
LINE
  8
0
 10
209.238
 11
209.211
 20
2.347
 21
2.304
  0
LINE
  8
0
 10
209.211
 11
209.184
 20
2.304
 21
2.263
  0
LINE
  8
0
 10
209.184
 11
209.156
 20
2.263
 21
2.221
  0
LINE
  8
0
 10
209.156
 11
209.129
 20
2.221
 21
2.179
  0
LINE
  8
0
 10
209.129
 11
209.1
 20
2.179
 21
2.138
  0
LINE
  8
0
 10
209.1
 11
209.071
 20
2.138
 21
2.098
  0
LINE
  8
0
 10
209.071
 11
209.042
 20
2.098
 21
2.057
  0
LINE
  8
0
 10
209.042
 11
209.013
 20
2.057
 21
2.017
  0
LINE
  8
0
 10
209.013
 11
208.983
 20
2.017
 21
1.977
  0
LINE
  8
0
 10
208.983
 11
208.952
 20
1.977
 21
1.937
  0
LINE
  8
0
 10
208.952
 11
208.921
 20
1.937
 21
1.898
  0
LINE
  8
0
 10
208.921
 11
208.859
 20
1.898
 21
1.82
  0
LINE
  8
0
 10
208.859
 11
208.827
 20
1.82
 21
1.782
  0
LINE
  8
0
 10
208.827
 11
208.794
 20
1.782
 21
1.744
  0
LINE
  8
0
 10
208.794
 11
208.762
 20
1.744
 21
1.706
  0
LINE
  8
0
 10
208.762
 11
208.729
 20
1.706
 21
1.669
  0
LINE
  8
0
 10
208.729
 11
208.695
 20
1.669
 21
1.632
  0
LINE
  8
0
 10
208.695
 11
208.661
 20
1.632
 21
1.595
  0
LINE
  8
0
 10
208.661
 11
208.627
 20
1.595
 21
1.558
  0
LINE
  8
0
 10
208.627
 11
208.592
 20
1.558
 21
1.522
  0
LINE
  8
0
 10
208.592
 11
208.558
 20
1.522
 21
1.487
  0
LINE
  8
0
 10
208.558
 11
208.487
 20
1.487
 21
1.416
  0
LINE
  8
0
 10
208.487
 11
208.451
 20
1.416
 21
1.382
  0
LINE
  8
0
 10
208.451
 11
208.414
 20
1.382
 21
1.347
  0
LINE
  8
0
 10
208.414
 11
208.378
 20
1.347
 21
1.313
  0
LINE
  8
0
 10
208.378
 11
208.341
 20
1.313
 21
1.28
  0
LINE
  8
0
 10
208.341
 11
208.303
 20
1.28
 21
1.247
  0
LINE
  8
0
 10
208.303
 11
208.266
 20
1.247
 21
1.214
  0
LINE
  8
0
 10
208.266
 11
208.228
 20
1.214
 21
1.181
  0
LINE
  8
0
 10
208.228
 11
208.189
 20
1.181
 21
1.149
  0
LINE
  8
0
 10
208.189
 11
208.151
 20
1.149
 21
1.118
  0
LINE
  8
0
 10
208.151
 11
208.112
 20
1.118
 21
1.086
  0
LINE
  8
0
 10
208.112
 11
208.073
 20
1.086
 21
1.056
  0
LINE
  8
0
 10
208.073
 11
208.033
 20
1.056
 21
1.025
  0
LINE
  8
0
 10
208.033
 11
207.993
 20
1.025
 21
0.995
  0
LINE
  8
0
 10
207.993
 11
207.953
 20
0.995
 21
0.965
  0
LINE
  8
0
 10
207.953
 11
207.913
 20
0.965
 21
0.936
  0
LINE
  8
0
 10
207.913
 11
207.872
 20
0.936
 21
0.907
  0
LINE
  8
0
 10
207.872
 11
207.831
 20
0.907
 21
0.879
  0
LINE
  8
0
 10
207.831
 11
207.79
 20
0.879
 21
0.85
  0
LINE
  8
0
 10
207.79
 11
207.748
 20
0.85
 21
0.823
  0
LINE
  8
0
 10
207.748
 11
207.706
 20
0.823
 21
0.796
  0
LINE
  8
0
 10
207.706
 11
207.622
 20
0.796
 21
0.742
  0
LINE
  8
0
 10
207.622
 11
207.579
 20
0.742
 21
0.716
  0
LINE
  8
0
 10
207.579
 11
207.493
 20
0.716
 21
0.666
  0
LINE
  8
0
 10
207.493
 11
207.449
 20
0.666
 21
0.641
  0
LINE
  8
0
 10
207.449
 11
207.406
 20
0.641
 21
0.617
  0
LINE
  8
0
 10
207.406
 11
207.362
 20
0.617
 21
0.593
  0
LINE
  8
0
 10
207.362
 11
207.318
 20
0.593
 21
0.57
  0
LINE
  8
0
 10
207.318
 11
207.273
 20
0.57
 21
0.547
  0
LINE
  8
0
 10
207.273
 11
207.229
 20
0.547
 21
0.524
  0
LINE
  8
0
 10
207.229
 11
207.184
 20
0.524
 21
0.502
  0
LINE
  8
0
 10
207.184
 11
207.139
 20
0.502
 21
0.481
  0
LINE
  8
0
 10
207.139
 11
207.094
 20
0.481
 21
0.459
  0
LINE
  8
0
 10
207.094
 11
207.048
 20
0.459
 21
0.439
  0
LINE
  8
0
 10
207.048
 11
207.002
 20
0.439
 21
0.418
  0
LINE
  8
0
 10
207.002
 11
206.957
 20
0.418
 21
0.399
  0
LINE
  8
0
 10
206.957
 11
206.911
 20
0.399
 21
0.379
  0
LINE
  8
0
 10
206.911
 11
206.864
 20
0.379
 21
0.361
  0
LINE
  8
0
 10
206.864
 11
206.818
 20
0.361
 21
0.342
  0
LINE
  8
0
 10
206.818
 11
206.771
 20
0.342
 21
0.324
  0
LINE
  8
0
 10
206.771
 11
206.724
 20
0.324
 21
0.307
  0
LINE
  8
0
 10
206.724
 11
206.677
 20
0.307
 21
0.29
  0
LINE
  8
0
 10
206.677
 11
206.63
 20
0.29
 21
0.273
  0
LINE
  8
0
 10
206.63
 11
206.583
 20
0.273
 21
0.257
  0
LINE
  8
0
 10
206.583
 11
206.536
 20
0.257
 21
0.242
  0
LINE
  8
0
 10
206.536
 11
206.488
 20
0.242
 21
0.227
  0
LINE
  8
0
 10
206.488
 11
206.44
 20
0.227
 21
0.212
  0
LINE
  8
0
 10
206.44
 11
206.392
 20
0.212
 21
0.198
  0
LINE
  8
0
 10
206.392
 11
206.344
 20
0.198
 21
0.184
  0
LINE
  8
0
 10
206.344
 11
206.296
 20
0.184
 21
0.171
  0
LINE
  8
0
 10
206.296
 11
206.248
 20
0.171
 21
0.158
  0
LINE
  8
0
 10
206.248
 11
206.199
 20
0.158
 21
0.146
  0
LINE
  8
0
 10
206.199
 11
206.151
 20
0.146
 21
0.134
  0
LINE
  8
0
 10
206.151
 11
206.102
 20
0.134
 21
0.123
  0
LINE
  8
0
 10
206.102
 11
206.053
 20
0.123
 21
0.112
  0
LINE
  8
0
 10
206.053
 11
206.005
 20
0.112
 21
0.102
  0
LINE
  8
0
 10
206.005
 11
205.956
 20
0.102
 21
0.092
  0
LINE
  8
0
 10
205.956
 11
205.906
 20
0.092
 21
0.083
  0
LINE
  8
0
 10
205.906
 11
205.857
 20
0.083
 21
0.074
  0
LINE
  8
0
 10
205.857
 11
205.808
 20
0.074
 21
0.066
  0
LINE
  8
0
 10
205.808
 11
205.759
 20
0.066
 21
0.058
  0
LINE
  8
0
 10
205.759
 11
205.709
 20
0.058
 21
0.051
  0
LINE
  8
0
 10
205.709
 11
205.66
 20
0.051
 21
0.044
  0
LINE
  8
0
 10
205.66
 11
205.61
 20
0.044
 21
0.037
  0
LINE
  8
0
 10
205.61
 11
205.561
 20
0.037
 21
0.032
  0
LINE
  8
0
 10
205.561
 11
205.511
 20
0.032
 21
0.026
  0
LINE
  8
0
 10
205.511
 11
205.461
 20
0.026
 21
0.021
  0
LINE
  8
0
 10
205.461
 11
205.412
 20
0.021
 21
0.017
  0
LINE
  8
0
 10
205.412
 11
205.362
 20
0.017
 21
0.013
  0
LINE
  8
0
 10
205.362
 11
205.262
 20
0.013
 21
0.007
  0
LINE
  8
0
 10
205.262
 11
205.212
 20
0.007
 21
0.005
  0
LINE
  8
0
 10
205.212
 11
205.112
 20
0.005
 21
0.001
  0
LINE
  8
0
 10
205.112
 11
205.062
 20
0.001
 21
0
  0
LINE
  8
0
 10
205.062
 11
4.963
 20
0
 21
0
  0
LINE
  8
0
 10
4.963
 11
4.863
 20
0
 21
0.002
  0
LINE
  8
0
 10
4.863
 11
4.813
 20
0.002
 21
0.004
  0
LINE
  8
0
 10
4.813
 11
4.713
 20
0.004
 21
0.008
  0
LINE
  8
0
 10
4.713
 11
4.663
 20
0.008
 21
0.011
  0
LINE
  8
0
 10
4.663
 11
4.613
 20
0.011
 21
0.015
  0
LINE
  8
0
 10
4.613
 11
4.564
 20
0.015
 21
0.019
  0
LINE
  8
0
 10
4.564
 11
4.464
 20
0.019
 21
0.029
  0
LINE
  8
0
 10
4.464
 11
4.414
 20
0.029
 21
0.034
  0
LINE
  8
0
 10
4.414
 11
4.365
 20
0.034
 21
0.04
  0
LINE
  8
0
 10
4.365
 11
4.315
 20
0.04
 21
0.047
  0
LINE
  8
0
 10
4.315
 11
4.266
 20
0.047
 21
0.054
  0
LINE
  8
0
 10
4.266
 11
4.217
 20
0.054
 21
0.062
  0
LINE
  8
0
 10
4.217
 11
4.167
 20
0.062
 21
0.07
  0
LINE
  8
0
 10
4.167
 11
4.118
 20
0.07
 21
0.078
  0
LINE
  8
0
 10
4.118
 11
4.069
 20
0.078
 21
0.087
  0
LINE
  8
0
 10
4.069
 11
4.02
 20
0.087
 21
0.097
  0
LINE
  8
0
 10
4.02
 11
3.971
 20
0.097
 21
0.107
  0
LINE
  8
0
 10
3.971
 11
3.922
 20
0.107
 21
0.118
  0
LINE
  8
0
 10
3.922
 11
3.873
 20
0.118
 21
0.129
  0
LINE
  8
0
 10
3.873
 11
3.825
 20
0.129
 21
0.14
  0
LINE
  8
0
 10
3.825
 11
3.776
 20
0.14
 21
0.152
  0
LINE
  8
0
 10
3.776
 11
3.728
 20
0.152
 21
0.164
  0
LINE
  8
0
 10
3.728
 11
3.68
 20
0.164
 21
0.177
  0
LINE
  8
0
 10
3.68
 11
3.584
 20
0.177
 21
0.205
  0
LINE
  8
0
 10
3.584
 11
3.536
 20
0.205
 21
0.219
  0
LINE
  8
0
 10
3.536
 11
3.488
 20
0.219
 21
0.234
  0
LINE
  8
0
 10
3.488
 11
3.441
 20
0.234
 21
0.249
  0
LINE
  8
0
 10
3.441
 11
3.393
 20
0.249
 21
0.265
  0
LINE
  8
0
 10
3.393
 11
3.346
 20
0.265
 21
0.281
  0
LINE
  8
0
 10
3.346
 11
3.299
 20
0.281
 21
0.298
  0
LINE
  8
0
 10
3.299
 11
3.252
 20
0.298
 21
0.315
  0
LINE
  8
0
 10
3.252
 11
3.205
 20
0.315
 21
0.333
  0
LINE
  8
0
 10
3.205
 11
3.159
 20
0.333
 21
0.351
  0
LINE
  8
0
 10
3.159
 11
3.113
 20
0.351
 21
0.37
  0
LINE
  8
0
 10
3.113
 11
3.066
 20
0.37
 21
0.389
  0
LINE
  8
0
 10
3.066
 11
3.02
 20
0.389
 21
0.409
  0
LINE
  8
0
 10
3.02
 11
2.975
 20
0.409
 21
0.429
  0
LINE
  8
0
 10
2.975
 11
2.929
 20
0.429
 21
0.449
  0
LINE
  8
0
 10
2.929
 11
2.839
 20
0.449
 21
0.491
  0
LINE
  8
0
 10
2.839
 11
2.749
 20
0.491
 21
0.535
  0
LINE
  8
0
 10
2.749
 11
2.704
 20
0.535
 21
0.558
  0
LINE
  8
0
 10
2.704
 11
2.66
 20
0.558
 21
0.581
  0
LINE
  8
0
 10
2.66
 11
2.572
 20
0.581
 21
0.629
  0
LINE
  8
0
 10
2.572
 11
2.529
 20
0.629
 21
0.653
  0
LINE
  8
0
 10
2.529
 11
2.486
 20
0.653
 21
0.678
  0
LINE
  8
0
 10
2.486
 11
2.443
 20
0.678
 21
0.704
  0
LINE
  8
0
 10
2.443
 11
2.4
 20
0.704
 21
0.729
  0
LINE
  8
0
 10
2.4
 11
2.357
 20
0.729
 21
0.756
  0
LINE
  8
0
 10
2.357
 11
2.315
 20
0.756
 21
0.782
  0
LINE
  8
0
 10
2.315
 11
2.273
 20
0.782
 21
0.809
  0
LINE
  8
0
 10
2.273
 11
2.231
 20
0.809
 21
0.837
  0
LINE
  8
0
 10
2.231
 11
2.19
 20
0.837
 21
0.864
  0
LINE
  8
0
 10
2.19
 11
2.149
 20
0.864
 21
0.893
  0
LINE
  8
0
 10
2.149
 11
2.108
 20
0.893
 21
0.921
  0
LINE
  8
0
 10
2.108
 11
2.067
 20
0.921
 21
0.951
  0
LINE
  8
0
 10
2.067
 11
2.027
 20
0.951
 21
0.98
  0
LINE
  8
0
 10
2.027
 11
1.947
 20
0.98
 21
1.04
  0
LINE
  8
0
 10
1.947
 11
1.908
 20
1.04
 21
1.071
  0
LINE
  8
0
 10
1.908
 11
1.869
 20
1.071
 21
1.102
  0
LINE
  8
0
 10
1.869
 11
1.83
 20
1.102
 21
1.133
  0
LINE
  8
0
 10
1.83
 11
1.791
 20
1.133
 21
1.165
  0
LINE
  8
0
 10
1.791
 11
1.753
 20
1.165
 21
1.198
  0
LINE
  8
0
 10
1.753
 11
1.715
 20
1.198
 21
1.23
  0
LINE
  8
0
 10
1.715
 11
1.678
 20
1.23
 21
1.263
  0
LINE
  8
0
 10
1.678
 11
1.641
 20
1.263
 21
1.297
  0
LINE
  8
0
 10
1.641
 11
1.604
 20
1.297
 21
1.33
  0
LINE
  8
0
 10
1.604
 11
1.567
 20
1.33
 21
1.364
  0
LINE
  8
0
 10
1.567
 11
1.531
 20
1.364
 21
1.399
  0
LINE
  8
0
 10
1.531
 11
1.496
 20
1.399
 21
1.434
  0
LINE
  8
0
 10
1.496
 11
1.46
 20
1.434
 21
1.469
  0
LINE
  8
0
 10
1.46
 11
1.425
 20
1.469
 21
1.504
  0
LINE
  8
0
 10
1.425
 11
1.39
 20
1.504
 21
1.54
  0
LINE
  8
0
 10
1.39
 11
1.356
 20
1.54
 21
1.577
  0
LINE
  8
0
 10
1.356
 11
1.322
 20
1.577
 21
1.613
  0
LINE
  8
0
 10
1.322
 11
1.288
 20
1.613
 21
1.65
  0
LINE
  8
0
 10
1.288
 11
1.255
 20
1.65
 21
1.687
  0
LINE
  8
0
 10
1.255
 11
1.222
 20
1.687
 21
1.725
  0
LINE
  8
0
 10
1.222
 11
1.189
 20
1.725
 21
1.763
  0
LINE
  8
0
 10
1.189
 11
1.157
 20
1.763
 21
1.801
  0
LINE
  8
0
 10
1.157
 11
1.126
 20
1.801
 21
1.84
  0
LINE
  8
0
 10
1.126
 11
1.094
 20
1.84
 21
1.878
  0
LINE
  8
0
 10
1.094
 11
1.063
 20
1.878
 21
1.918
  0
LINE
  8
0
 10
1.063
 11
1.033
 20
1.918
 21
1.957
  0
LINE
  8
0
 10
1.033
 11
1.002
 20
1.957
 21
1.997
  0
LINE
  8
0
 10
1.002
 11
0.973
 20
1.997
 21
2.037
  0
LINE
  8
0
 10
0.973
 11
0.943
 20
2.037
 21
2.077
  0
LINE
  8
0
 10
0.943
 11
0.914
 20
2.077
 21
2.118
  0
LINE
  8
0
 10
0.914
 11
0.886
 20
2.118
 21
2.159
  0
LINE
  8
0
 10
0.886
 11
0.857
 20
2.159
 21
2.2
  0
LINE
  8
0
 10
0.857
 11
0.83
 20
2.2
 21
2.242
  0
LINE
  8
0
 10
0.83
 11
0.802
 20
2.242
 21
2.283
  0
LINE
  8
0
 10
0.802
 11
0.775
 20
2.283
 21
2.326
  0
LINE
  8
0
 10
0.775
 11
0.749
 20
2.326
 21
2.368
  0
LINE
  8
0
 10
0.749
 11
0.723
 20
2.368
 21
2.41
  0
LINE
  8
0
 10
0.723
 11
0.697
 20
2.41
 21
2.453
  0
LINE
  8
0
 10
0.697
 11
0.672
 20
2.453
 21
2.496
  0
LINE
  8
0
 10
0.672
 11
0.647
 20
2.496
 21
2.54
  0
LINE
  8
0
 10
0.647
 11
0.623
 20
2.54
 21
2.583
  0
LINE
  8
0
 10
0.623
 11
0.575
 20
2.583
 21
2.671
  0
LINE
  8
0
 10
0.575
 11
0.552
 20
2.671
 21
2.716
  0
LINE
  8
0
 10
0.552
 11
0.53
 20
2.716
 21
2.76
  0
LINE
  8
0
 10
0.53
 11
0.486
 20
2.76
 21
2.85
  0
LINE
  8
0
 10
0.486
 11
0.444
 20
2.85
 21
2.94
  0
LINE
  8
0
 10
0.444
 11
0.424
 20
2.94
 21
2.986
  0
LINE
  8
0
 10
0.424
 11
0.404
 20
2.986
 21
3.032
  0
LINE
  8
0
 10
0.404
 11
0.384
 20
3.032
 21
3.078
  0
LINE
  8
0
 10
0.384
 11
0.365
 20
3.078
 21
3.124
  0
LINE
  8
0
 10
0.365
 11
0.347
 20
3.124
 21
3.171
  0
LINE
  8
0
 10
0.347
 11
0.329
 20
3.171
 21
3.217
  0
LINE
  8
0
 10
0.329
 11
0.311
 20
3.217
 21
3.264
  0
LINE
  8
0
 10
0.311
 11
0.294
 20
3.264
 21
3.311
  0
LINE
  8
0
 10
0.294
 11
0.277
 20
3.311
 21
3.358
  0
LINE
  8
0
 10
0.277
 11
0.261
 20
3.358
 21
3.405
  0
LINE
  8
0
 10
0.261
 11
0.245
 20
3.405
 21
3.453
  0
LINE
  8
0
 10
0.245
 11
0.23
 20
3.453
 21
3.5
  0
LINE
  8
0
 10
0.23
 11
0.216
 20
3.5
 21
3.548
  0
LINE
  8
0
 10
0.216
 11
0.201
 20
3.548
 21
3.596
  0
LINE
  8
0
 10
0.201
 11
0.187
 20
3.596
 21
3.644
  0
LINE
  8
0
 10
0.187
 11
0.174
 20
3.644
 21
3.692
  0
LINE
  8
0
 10
0.174
 11
0.161
 20
3.692
 21
3.74
  0
LINE
  8
0
 10
0.161
 11
0.149
 20
3.74
 21
3.789
  0
LINE
  8
0
 10
0.149
 11
0.137
 20
3.789
 21
3.837
  0
LINE
  8
0
 10
0.137
 11
0.126
 20
3.837
 21
3.886
  0
LINE
  8
0
 10
0.126
 11
0.115
 20
3.886
 21
3.934
  0
LINE
  8
0
 10
0.115
 11
0.104
 20
3.934
 21
3.983
  0
LINE
  8
0
 10
0.104
 11
0.095
 20
3.983
 21
4.032
  0
LINE
  8
0
 10
0.095
 11
0.085
 20
4.032
 21
4.081
  0
LINE
  8
0
 10
0.085
 11
0.076
 20
4.081
 21
4.13
  0
LINE
  8
0
 10
0.076
 11
0.068
 20
4.13
 21
4.18
  0
LINE
  8
0
 10
0.068
 11
0.052
 20
4.18
 21
4.278
  0
LINE
  8
0
 10
0.052
 11
0.045
 20
4.278
 21
4.328
  0
LINE
  8
0
 10
0.045
 11
0.039
 20
4.328
 21
4.377
  0
LINE
  8
0
 10
0.039
 11
0.033
 20
4.377
 21
4.427
  0
LINE
  8
0
 10
0.033
 11
0.027
 20
4.427
 21
4.477
  0
LINE
  8
0
 10
0.027
 11
0.022
 20
4.477
 21
4.526
  0
LINE
  8
0
 10
0.022
 11
0.018
 20
4.526
 21
4.576
  0
LINE
  8
0
 10
0.018
 11
0.014
 20
4.576
 21
4.626
  0
LINE
  8
0
 10
0.014
 11
0.011
 20
4.626
 21
4.676
  0
LINE
  8
0
 10
0.011
 11
0.008
 20
4.676
 21
4.725
  0
LINE
  8
0
 10
0.008
 11
0.005
 20
4.725
 21
4.775
  0
LINE
  8
0
 10
0.005
 11
0.003
 20
4.775
 21
4.825
  0
LINE
  8
0
 10
0.003
 11
0.001
 20
4.825
 21
4.925
  0
LINE
  8
0
 10
0.001
 11
0
 20
4.925
 21
4.975
  0
ENDSEC
  0
SECTION
  2
OBJECTS
  0
DICTIONARY
  0
ENDSEC
  0
EOF
